<svg width="22" height="22" viewBox="0 0 22 22" fill="none" xmlns="http://www.w3.org/2000/svg">
<path d="M12.7875 1.56641C14.1434 1.36952 15.5758 1.5412 16.6498 2.18555C16.8477 2.30439 16.98 2.50816 17.0082 2.7373C17.0362 2.96629 16.9574 3.19522 16.7943 3.3584L13.9457 6.20703L13.7689 8.15137L15.7133 7.97461L18.5619 5.12695C18.7251 4.96376 18.9549 4.88406 19.184 4.91211C19.4129 4.9404 19.6169 5.07271 19.7357 5.27051C20.3802 6.34464 20.5509 7.77771 20.3539 9.13379C20.1556 10.498 19.5695 11.8966 18.5619 12.9043C16.6811 14.7851 13.7885 15.0238 11.5092 14.2988L4.77283 21.0361C3.69891 22.11 1.95808 22.11 0.884155 21.0361C-0.189764 19.9622 -0.189718 18.2214 0.884155 17.1475L7.62146 10.4092C6.8974 8.13019 7.13588 5.23851 9.01599 3.3584C10.0237 2.35071 11.4232 1.76463 12.7875 1.56641ZM14.9261 3.10547C14.356 2.97588 13.692 2.95061 13.0023 3.05078C11.8849 3.21324 10.8082 3.68733 10.0765 4.41895C8.61009 5.88539 8.4132 8.36459 9.18396 10.332C9.19966 10.3721 9.21061 10.4133 9.21912 10.4541C9.21999 10.4584 9.22124 10.4625 9.22205 10.4668C9.2268 10.4918 9.22671 10.517 9.22888 10.542C9.23096 10.5661 9.23499 10.59 9.23474 10.6143C9.23445 10.6413 9.23011 10.6677 9.22693 10.6943C9.22443 10.7155 9.22342 10.7369 9.21912 10.7578C9.21279 10.7883 9.20179 10.8173 9.19177 10.8467C9.18675 10.8615 9.18408 10.8771 9.1781 10.8916C9.16514 10.9231 9.14736 10.952 9.13025 10.9814C9.12197 10.9957 9.11513 11.0107 9.10583 11.0244C9.10164 11.0306 9.09752 11.0369 9.09314 11.043C9.07123 11.0734 9.0479 11.1033 9.02087 11.1309C9.01572 11.1361 9.01057 11.1414 9.00525 11.1465L1.9447 18.208C1.45661 18.6962 1.45657 19.4875 1.9447 19.9756C2.43284 20.4636 3.22415 20.4636 3.71228 19.9756L10.7836 12.9043C10.8458 12.8421 10.9174 12.7955 10.9926 12.7598C10.9999 12.7563 11.0066 12.7513 11.014 12.748L11.0316 12.7393C11.064 12.7261 11.0977 12.7174 11.1312 12.709C11.1391 12.707 11.1467 12.7039 11.1547 12.7021C11.1914 12.6942 11.2286 12.6909 11.266 12.6885C11.2771 12.6877 11.2881 12.6858 11.2992 12.6855C11.3397 12.6848 11.3801 12.6886 11.4203 12.6943C11.4283 12.6955 11.4367 12.6949 11.4447 12.6963C11.4559 12.6983 11.4668 12.7016 11.4779 12.7041C11.512 12.7118 11.5459 12.7217 11.5795 12.7344C11.5862 12.7369 11.5933 12.7385 11.6 12.7412C13.5656 13.5069 16.0377 13.3074 17.5013 11.8438C18.233 11.1121 18.708 10.0363 18.8705 8.91895C18.9707 8.22899 18.9455 7.5644 18.8158 6.99414L16.5824 9.22754C16.4583 9.3516 16.2942 9.42845 16.1195 9.44434L13.0092 9.72656C12.7876 9.74669 12.5679 9.66798 12.4105 9.51074C12.2532 9.35339 12.1736 9.13372 12.1937 8.91211L12.476 5.80078C12.4919 5.62618 12.5697 5.46285 12.6937 5.33887L14.9261 3.10547Z" fill="black"/>
</svg>
