<svg width="24" height="24" viewBox="0 0 24 24" fill="none" xmlns="http://www.w3.org/2000/svg">
<path d="M13 12H21M21 12L17.16 8M21 12L17.16 16" stroke="#065F46" stroke-width="1.5" stroke-linecap="round" stroke-linejoin="round"/>
<g clip-path="url(#clip0_2037_1708)">
<path d="M11.1627 7.60621C11.3848 7.60621 11.5977 7.5216 11.7548 7.37099C11.9118 7.22037 12 7.0161 12 6.8031C12 6.59011 11.9118 6.38584 11.7548 6.23522C11.5977 6.08461 11.3848 6 11.1627 6H5.19808C4.97616 6.00022 4.76341 6.08493 4.60657 6.23551C4.44973 6.3861 4.36163 6.59025 4.36163 6.8031V14.767H2.83731C2.61524 14.767 2.40227 14.8516 2.24524 15.0022C2.08822 15.1529 2 15.3571 2 15.5701C2 15.7831 2.08822 15.9874 2.24524 16.138C2.40227 16.2886 2.61524 16.3732 2.83731 16.3732H4.36163V18.1969C4.36163 18.4099 4.44985 18.6142 4.60687 18.7648C4.7639 18.9154 4.97687 19 5.19894 19C5.421 19 5.63397 18.9154 5.791 18.7648C5.94802 18.6142 6.03624 18.4099 6.03624 18.1969V16.3732H8.62373C8.8458 16.3732 9.05877 16.2886 9.21579 16.138C9.37282 15.9874 9.46103 15.7831 9.46103 15.5701C9.46103 15.3571 9.37282 15.1529 9.21579 15.0022C9.05877 14.8516 8.8458 14.767 8.62373 14.767H6.03624V12.6987H10.5409C10.763 12.6987 10.976 12.6141 11.133 12.4635C11.29 12.3129 11.3782 12.1086 11.3782 11.8956C11.3782 11.6826 11.29 11.4783 11.133 11.3277C10.976 11.1771 10.763 11.0925 10.5409 11.0925H6.03624V7.60621H11.1627Z" fill="#065F46"/>
</g>
<defs>
<clipPath id="clip0_2037_1708">
<rect width="10" height="13" fill="white" transform="translate(2 6)"/>
</clipPath>
</defs>
</svg>
