<svg width="20" height="20" viewBox="0 0 20 20" fill="none" xmlns="http://www.w3.org/2000/svg">
<path d="M7.15039 11C7.89567 11.0002 8.49979 11.6043 8.5 12.3496V18.1504C8.49979 18.8957 7.89567 19.4998 7.15039 19.5H1.34961C0.604335 19.4998 0.000211009 18.8957 0 18.1504V12.3496C0.000211037 11.6043 0.604335 11.0002 1.34961 11H7.15039ZM18.1504 11C18.8957 11.0002 19.4998 11.6043 19.5 12.3496V18.1504C19.4998 18.8957 18.8957 19.4998 18.1504 19.5H12.3496C11.6043 19.4998 11.0002 18.8957 11 18.1504V12.3496C11.0002 11.6043 11.6043 11.0002 12.3496 11H18.1504ZM1.5 18H7V12.5H1.5V18ZM12.5 18H18V12.5H12.5V18ZM7.15039 0C7.89567 0.000211037 8.49979 0.604335 8.5 1.34961V7.15039C8.49979 7.89567 7.89567 8.49979 7.15039 8.5H1.34961C0.604335 8.49979 0.000211009 7.89567 0 7.15039V1.34961C0.000211037 0.604335 0.604335 0.000211009 1.34961 0H7.15039ZM18.1504 0C18.8957 0.000211037 19.4998 0.604335 19.5 1.34961V7.15039C19.4998 7.89567 18.8957 8.49979 18.1504 8.5H12.3496C11.6043 8.49979 11.0002 7.89567 11 7.15039V1.34961C11.0002 0.604335 11.6043 0.000211009 12.3496 0H18.1504ZM1.5 7H7V1.5H1.5V7ZM12.5 7H18V1.5H12.5V7Z" fill="black"/>
</svg>
