<svg width="22" height="20" viewBox="0 0 22 20" fill="none" xmlns="http://www.w3.org/2000/svg">
<path d="M18.7134 7.12811L18.4668 7.69379C18.2864 8.10792 17.7136 8.10792 17.5331 7.69379L17.2866 7.12811C16.8471 6.11947 16.0555 5.31641 15.0677 4.87708L14.308 4.53922C13.8973 4.35653 13.8973 3.75881 14.308 3.57612L15.0252 3.25714C16.0384 2.80651 16.8442 1.97373 17.2761 0.930831L17.5293 0.319531C17.7058 -0.10651 18.2942 -0.10651 18.4706 0.319531L18.7238 0.930831C19.1558 1.97373 19.9616 2.80651 20.9748 3.25714L21.6919 3.57612C22.1027 3.75881 22.1027 4.35653 21.6919 4.53922L20.9323 4.87708C19.9445 5.31641 19.1529 6.11947 18.7134 7.12811ZM7 2H12V4H7.82843L5.82843 6H2V18H18V10H20V19C20 19.5523 19.5523 20 19 20H1C0.44772 20 0 19.5523 0 19V5C0 4.44772 0.44772 4 1 4H5L7 2ZM10 17C6.96243 17 4.5 14.5376 4.5 11.5C4.5 8.46243 6.96243 6 10 6C13.0376 6 15.5 8.46243 15.5 11.5C15.5 14.5376 13.0376 17 10 17ZM10 15C11.933 15 13.5 13.433 13.5 11.5C13.5 9.567 11.933 8 10 8C8.067 8 6.5 9.567 6.5 11.5C6.5 13.433 8.067 15 10 15Z" fill="#5B5B5B"/>
</svg>
