<svg width="97" height="22" viewBox="0 0 97 22" fill="none" xmlns="http://www.w3.org/2000/svg">
<path d="M0.841553 11.0425V9.88751C1.70527 9.88751 2.30835 9.71041 2.65079 9.3562C2.99321 8.99688 3.16442 8.40397 3.16442 7.57749V5.36756C3.16442 4.58214 3.2513 3.92252 3.42507 3.38863C3.60395 2.84963 3.87482 2.41843 4.23769 2.09501C4.60055 1.77163 5.06052 1.53806 5.61759 1.39431C6.17469 1.25058 6.83142 1.17871 7.58782 1.17871V3.00364C6.99498 3.00364 6.53245 3.0909 6.20025 3.26543C5.86804 3.43997 5.63551 3.71204 5.5026 4.08166C5.37484 4.44612 5.31097 4.91324 5.31097 5.48306V8.28589C5.31097 8.68117 5.25219 9.04821 5.13464 9.38702C5.01709 9.72067 4.79988 10.0107 4.48301 10.2571C4.16615 10.5035 3.71381 10.696 3.12609 10.8346C2.53835 10.9732 1.77683 11.0425 0.841553 11.0425ZM7.58782 20.8216C6.83142 20.8216 6.17469 20.7498 5.61759 20.606C5.06052 20.4623 4.60055 20.2287 4.23769 19.9053C3.87482 19.582 3.60395 19.1507 3.42507 18.6117C3.2513 18.0779 3.16442 17.4182 3.16442 16.6328V14.4152C3.16442 13.5938 2.99321 13.0035 2.65079 12.6441C2.30835 12.2848 1.70527 12.1051 0.841553 12.1051V10.9578C1.77683 10.9578 2.53835 11.0271 3.12609 11.1657C3.71381 11.2992 4.16615 11.4917 4.48301 11.7432C4.79988 11.9896 5.01709 12.2822 5.13464 12.6211C5.25219 12.9547 5.31097 13.3192 5.31097 13.7145V16.5173C5.31097 17.082 5.37484 17.5464 5.5026 17.911C5.63551 18.2806 5.86804 18.5527 6.20025 18.7272C6.53245 18.9069 6.99498 18.9967 7.58782 18.9967V20.8216ZM0.841553 12.1051V9.88751H2.9651V12.1051H0.841553ZM18.8928 10.9578V12.1051C18.0291 12.1051 17.4259 12.2848 17.0836 12.6441C16.7411 13.0035 16.57 13.5938 16.57 14.4152V16.6328C16.57 17.4182 16.4805 18.0779 16.3017 18.6117C16.1279 19.1507 15.8595 19.582 15.4967 19.9053C15.1338 20.2287 14.6738 20.4623 14.1167 20.606C13.5597 20.7498 12.903 20.8216 12.1465 20.8216V18.9967C12.7394 18.9967 13.2019 18.9069 13.5341 18.7272C13.8663 18.5527 14.0963 18.2806 14.2241 17.911C14.357 17.5464 14.4234 17.082 14.4234 16.5173V13.7145C14.4234 13.3192 14.4822 12.9547 14.5997 12.6211C14.7173 12.2822 14.9345 11.9896 15.2514 11.7432C15.5682 11.4917 16.0205 11.2992 16.6083 11.1657C17.196 11.0271 17.9576 10.9578 18.8928 10.9578ZM12.1465 1.17871C12.903 1.17871 13.5597 1.25058 14.1167 1.39431C14.6738 1.53806 15.1338 1.77163 15.4967 2.09501C15.8595 2.41843 16.1279 2.84963 16.3017 3.38863C16.4805 3.92252 16.57 4.58214 16.57 5.36756V7.57749C16.57 8.40397 16.7411 8.99688 17.0836 9.3562C17.4259 9.71041 18.0291 9.88751 18.8928 9.88751V11.0425C17.9576 11.0425 17.196 10.9732 16.6083 10.8346C16.0205 10.696 15.5682 10.5035 15.2514 10.2571C14.9345 10.0107 14.7173 9.72067 14.5997 9.38702C14.4822 9.04821 14.4234 8.68117 14.4234 8.28589V5.48306C14.4234 4.91324 14.357 4.44612 14.2241 4.08166C14.0963 3.71204 13.8663 3.43997 13.5341 3.26543C13.2019 3.0909 12.7394 3.00364 12.1465 3.00364V1.17871ZM18.8928 9.88751V12.1051H16.7693V9.88751H18.8928Z" fill="#0A63F2"/>
<path d="M23.1151 18.0716V16.5247L30.1155 6.43987H23.0752V4.35729H33.1823V5.90416L26.1886 15.989H33.2223V18.0716H23.1151ZM42.036 13.7457V7.78586H44.4495V18.0716H42.1093V16.2434H42.0027C41.7715 16.8193 41.3915 17.2903 40.8626 17.6564C40.3381 18.0224 39.6915 18.2055 38.9225 18.2055C38.2513 18.2055 37.658 18.056 37.1424 17.7568C36.6313 17.4532 36.2312 17.0135 35.9424 16.4376C35.6534 15.8573 35.509 15.1564 35.509 14.335V7.78586H37.9225V13.96C37.9225 14.6118 38.1002 15.1296 38.4558 15.5135C38.8114 15.8975 39.2781 16.0894 39.8559 16.0894C40.2115 16.0894 40.556 16.0023 40.8892 15.8282C41.2226 15.6542 41.496 15.3952 41.7094 15.0515C41.9271 14.7033 42.036 14.268 42.036 13.7457ZM37.9958 6.27247C37.6448 6.27247 37.3403 6.14746 37.0825 5.89746C36.829 5.64746 36.7024 5.35282 36.7024 5.01353C36.7024 4.6564 36.829 4.35729 37.0825 4.11622C37.3403 3.87068 37.6448 3.74791 37.9958 3.74791C38.3558 3.74791 38.6581 3.87068 38.9025 4.11622C39.1514 4.35729 39.2759 4.6564 39.2759 5.01353C39.2759 5.35282 39.1514 5.64746 38.9025 5.89746C38.6581 6.14746 38.3558 6.27247 37.9958 6.27247ZM41.996 6.27247C41.6449 6.27247 41.3405 6.14746 41.0826 5.89746C40.8293 5.64746 40.7026 5.35282 40.7026 5.01353C40.7026 4.6564 40.8293 4.35729 41.0826 4.11622C41.3405 3.87068 41.6449 3.74791 41.996 3.74791C42.356 3.74791 42.6582 3.87068 42.9028 4.11622C43.1515 4.35729 43.2761 4.6564 43.2761 5.01353C43.2761 5.35282 43.1515 5.64746 42.9028 5.89746C42.6582 6.14746 42.356 6.27247 41.996 6.27247ZM46.9312 18.0716V7.78586H49.2713V9.50014H49.378C49.5646 8.90639 49.8847 8.4488 50.338 8.12738C50.7959 7.80148 51.3182 7.63854 51.9048 7.63854C52.0381 7.63854 52.1871 7.64524 52.3515 7.65863C52.5203 7.66755 52.6604 7.68317 52.7714 7.7055V9.93541C52.6693 9.8997 52.507 9.86845 52.2849 9.84165C52.0671 9.81041 51.8559 9.79478 51.6514 9.79478C51.2115 9.79478 50.8158 9.89076 50.4647 10.0827C50.118 10.2702 49.8447 10.5314 49.6447 10.8662C49.4446 11.201 49.3447 11.5872 49.3447 12.0247V18.0716H46.9312ZM54.3749 18.0716V7.78586H56.7883V18.0716H54.3749ZM55.5883 6.32604C55.206 6.32604 54.8771 6.1988 54.6016 5.94434C54.3259 5.68541 54.1883 5.37514 54.1883 5.01353C54.1883 4.64747 54.3259 4.33719 54.6016 4.08273C54.8771 3.82381 55.206 3.69434 55.5883 3.69434C55.9749 3.69434 56.3038 3.82381 56.5749 4.08273C56.8506 4.33719 56.9883 4.64747 56.9883 5.01353C56.9883 5.37514 56.8506 5.68541 56.5749 5.94434C56.3038 6.1988 55.9749 6.32604 55.5883 6.32604ZM64.0037 18.0716H59.3768V4.35729H64.097C65.4526 4.35729 66.6171 4.63183 67.5905 5.18095C68.5684 5.7256 69.3195 6.50908 69.8439 7.53139C70.3683 8.55371 70.6307 9.77693 70.6307 11.201C70.6307 12.6296 70.3661 13.8573 69.8373 14.8841C69.3128 15.9109 68.5551 16.6988 67.5638 17.248C66.5772 17.797 65.3903 18.0716 64.0037 18.0716ZM61.8502 15.922H63.8837C64.8348 15.922 65.6282 15.7479 66.2638 15.3997C66.8993 15.047 67.3771 14.5225 67.6972 13.826C68.0172 13.1251 68.1772 12.2501 68.1772 11.201C68.1772 10.1519 68.0172 9.28139 67.6972 8.58943C67.3771 7.893 66.9039 7.37291 66.2771 7.02916C65.6549 6.68095 64.8814 6.50683 63.9569 6.50683H61.8502V15.922ZM77.4076 18.2724C76.3809 18.2724 75.4941 18.0582 74.7476 17.6297C74.0052 17.1966 73.4342 16.585 73.0341 15.7947C72.6341 15.0001 72.4341 14.0649 72.4341 12.989C72.4341 11.9309 72.6341 11.0024 73.0341 10.2033C73.4385 9.39969 74.003 8.7747 74.7275 8.32827C75.4519 7.87737 76.3032 7.65193 77.281 7.65193C77.9121 7.65193 78.5077 7.75461 79.0677 7.95996C79.6321 8.16085 80.13 8.47336 80.5611 8.89746C80.9967 9.32157 81.3389 9.86175 81.5878 10.518C81.8367 11.1698 81.9612 11.9466 81.9612 12.8484V13.5917H73.5674V11.9577H79.6478C79.6432 11.4934 79.5433 11.0805 79.3477 10.7189C79.1521 10.3528 78.8788 10.0649 78.5276 9.85506C78.1811 9.64523 77.7765 9.54032 77.3143 9.54032C76.8209 9.54032 76.3875 9.66086 76.0142 9.90193C75.6409 10.1385 75.3497 10.451 75.1409 10.8394C74.9364 11.2234 74.8319 11.6452 74.8275 12.105V13.5314C74.8275 14.1296 74.9364 14.643 75.1542 15.0716C75.372 15.4957 75.6764 15.8216 76.0675 16.0493C76.4587 16.2724 76.9165 16.384 77.4409 16.384C77.7921 16.384 78.1099 16.335 78.3943 16.2368C78.6787 16.134 78.9254 15.9846 79.1343 15.7881C79.3433 15.5917 79.501 15.3484 79.6077 15.0582L81.8611 15.3126C81.7189 15.9109 81.4478 16.4332 81.0477 16.8796C80.6522 17.3215 80.1455 17.6654 79.5278 17.9108C78.91 18.1519 78.2033 18.2724 77.4076 18.2724ZM92.8567 7.78586L89.2098 18.0716H86.5431L82.8962 7.78586H85.4697L87.8232 15.4265H87.9297L90.2899 7.78586H92.8567Z" fill="black"/>
</svg>
