<svg width="18" height="22" viewBox="0 0 18 22" fill="none" xmlns="http://www.w3.org/2000/svg">
<path d="M13.002 0C13.3598 0.000127398 13.703 0.142447 13.9561 0.395508L17.1045 3.54395C17.3576 3.79701 17.4999 4.14018 17.5 4.49805V20.1504C17.4998 20.8957 16.8957 21.4998 16.1504 21.5H1.34961C0.604334 21.4998 0.000211363 20.8957 0 20.1504V1.34961C0.000211042 0.604334 0.604336 0.000211283 1.34961 0H13.002ZM1.5 20H16V5.5H13.3496C12.6043 5.49979 12.0002 4.89567 12 4.15039V1.5H1.5V20ZM12.75 16C13.1642 16 13.5 16.3358 13.5 16.75C13.5 17.1642 13.1642 17.5 12.75 17.5H4.75C4.33579 17.5 4 17.1642 4 16.75C4 16.3358 4.33579 16 4.75 16H12.75ZM8.75 12C9.16421 12 9.5 12.3358 9.5 12.75C9.5 13.1642 9.16421 13.5 8.75 13.5H4.75C4.33579 13.5 4 13.1642 4 12.75C4 12.3358 4.33579 12 4.75 12H8.75ZM12.75 8C13.1642 8 13.5 8.33579 13.5 8.75C13.5 9.16421 13.1642 9.5 12.75 9.5H4.75C4.33579 9.5 4 9.16421 4 8.75C4 8.33579 4.33579 8 4.75 8H12.75ZM13.5 4H15.4395L13.5 2.06055V4Z" fill="black"/>
</svg>
