<svg width="20" height="20" viewBox="0 0 20 20" fill="none" xmlns="http://www.w3.org/2000/svg">
<path d="M8.75 0C13.5825 0 17.5 3.91751 17.5 8.75C17.5 10.8959 16.7242 12.8601 15.4424 14.3818L19.2803 18.2197C19.5732 18.5126 19.5732 18.9874 19.2803 19.2803C18.9874 19.5732 18.5126 19.5732 18.2197 19.2803L14.3828 15.4434C12.861 16.7252 10.8959 17.5 8.75 17.5C3.91751 17.5 0 13.5825 0 8.75C0 3.91751 3.91751 0 8.75 0ZM8.75 1.5C4.74593 1.5 1.5 4.74593 1.5 8.75C1.5 12.7541 4.74593 16 8.75 16C10.7557 16 12.5704 15.1869 13.8838 13.8701C15.1926 12.5579 16 10.7488 16 8.75C16 4.74593 12.7541 1.5 8.75 1.5Z" fill="black"/>
</svg>
