<svg width="22" height="22" viewBox="0 0 22 22" fill="none" xmlns="http://www.w3.org/2000/svg">
<path d="M11.8105 0.0107422C12.0972 0.0591671 12.3354 0.271052 12.4111 0.55957L12.9375 2.56738L14.876 3.36426L16.2627 2.17969C16.5603 1.9254 17.0035 1.94292 17.2803 2.21973L19.2803 4.21973C19.556 4.49547 19.574 4.93659 19.3223 5.23438L18.1426 6.62988L18.9209 8.51074L20.9346 9.02344C21.267 9.10797 21.5 9.40698 21.5 9.75V11.7275C21.4998 12.0689 21.2688 12.3672 20.9385 12.4531L18.9131 12.9795L18.1338 14.8633L19.3223 16.2646C19.5747 16.5624 19.5563 17.0043 19.2803 17.2803L17.2803 19.2803C16.9986 19.562 16.5456 19.5746 16.249 19.3086L16.2461 19.3057C16.2438 19.3036 16.24 19.3 16.2354 19.2959C16.2259 19.2875 16.2114 19.2749 16.1934 19.2588C16.1574 19.2267 16.1058 19.1796 16.042 19.123C15.9141 19.0096 15.739 18.8552 15.5508 18.6914C15.3185 18.4892 15.0796 18.2859 14.8857 18.126L12.9893 18.9111L12.4766 20.9346C12.3921 21.2671 12.0931 21.5 11.75 21.5H9.75C9.40652 21.5 9.10656 21.2666 9.02246 20.9336L8.51172 18.9121L6.66797 18.1533L5.22363 19.3311C4.92538 19.5741 4.49179 19.5523 4.21973 19.2803L2.21973 17.2803C1.93863 16.9992 1.9259 16.5477 2.19043 16.251L3.38965 14.9043L2.60059 13.0322L0.552734 12.4736C0.226531 12.3846 0 12.0881 0 11.75V9.75C0 9.40159 0.239887 9.09889 0.579102 9.01953L2.57324 8.55371L3.34082 6.66699L2.16797 5.22266C1.92574 4.92437 1.94801 4.49145 2.21973 4.21973L4.21973 2.21973L4.33203 2.12695C4.61051 1.93979 4.9883 1.95866 5.24805 2.18945L6.59961 3.39062L8.46777 2.60254L9.00586 0.55957L9.04785 0.44043C9.16764 0.1758 9.43337 0 9.73145 0H11.6855L11.8105 0.0107422ZM9.82422 3.3418C9.76503 3.56672 9.60488 3.75136 9.39062 3.8418L6.74609 4.95703C6.47965 5.06935 6.17211 5.01834 5.95605 4.82617L4.7793 3.78027L3.75781 4.80176L4.78516 6.06543C4.95769 6.27778 5.00143 6.56782 4.89844 6.82129L3.81738 9.47852C3.72566 9.70403 3.53005 9.87143 3.29297 9.92676L1.5 10.3447V11.1768L3.34863 11.6816C3.57075 11.7423 3.75233 11.9021 3.8418 12.1143L4.95703 14.7588C5.06926 15.0254 5.01772 15.3329 4.8252 15.5488L3.78027 16.7197L4.80078 17.7402L6.06738 16.709L6.15039 16.6494C6.35246 16.5262 6.60355 16.5052 6.82617 16.5967L9.43262 17.6689L9.51172 17.707C9.69124 17.8069 9.82309 17.977 9.87402 18.1787L10.334 20H11.167L11.6279 18.1787L11.6543 18.0947C11.7275 17.9037 11.8761 17.7492 12.0674 17.6699L14.7178 16.5723C14.9569 16.4732 15.2308 16.5047 15.4414 16.6553C15.6977 16.8385 16.163 17.2366 16.5352 17.5605C16.5979 17.6152 16.6592 17.6693 16.7178 17.7207L17.7305 16.708L16.6934 15.4844C16.5119 15.2701 16.4659 14.9724 16.5732 14.7129L17.6709 12.0615L17.709 11.9824C17.808 11.805 17.9757 11.6739 18.1748 11.6221L20 11.1465V10.332L18.1875 9.87207C17.9584 9.81378 17.7702 9.651 17.6797 9.43262L16.582 6.78223C16.4747 6.52293 16.521 6.22506 16.7021 6.01074L17.7314 4.79199L16.71 3.77051L15.502 4.80273C15.288 4.98555 14.9897 5.03374 14.7295 4.92676L12.0225 3.81348C11.8051 3.72407 11.6418 3.53789 11.582 3.31055L11.1064 1.5H10.3086L9.82422 3.3418ZM10.75 7C12.8211 7 14.5 8.67893 14.5 10.75C14.5 12.8211 12.8211 14.5 10.75 14.5C8.67893 14.5 7 12.8211 7 10.75C7 8.67893 8.67893 7 10.75 7ZM10.75 8.5C9.50736 8.5 8.5 9.50736 8.5 10.75C8.5 11.9926 9.50736 13 10.75 13C11.9926 13 13 11.9926 13 10.75C13 9.50736 11.9926 8.5 10.75 8.5Z" fill="black"/>
</svg>
